<svg xmlns="http://www.w3.org/2000/svg" xmlns:xlink="http://www.w3.org/1999/xlink" width="605.267" height="149.14" viewBox="0 0 605.267 149.14">
    <defs>
        <filter id="Union_1" x="0" y="0" width="605.267" height="149.14" filterUnits="userSpaceOnUse">
            <feOffset dy="3" input="SourceAlpha"/>
            <feGaussianBlur stdDeviation="15" result="blur"/>
            <feFlood flood-color="#8da8e8" flood-opacity="0.435"/>
            <feComposite operator="in" in2="blur"/>
            <feComposite in="SourceGraphic"/>
        </filter>
    </defs>
    <g transform="matrix(1, 0, 0, 1, 0, 0)" filter="url(#Union_1)">
        <g id="Union_1-2" data-name="Union 1" transform="translate(2036.51 42)" fill="#fff">
            <path d="M -1990.345581054688 58.06022644042969 L -1974.845825195312 29.92248344421387 L -1974.774780273438 29.79355049133301 L -1974.784912109375 29.64674949645996 C -1974.822631835938 29.10181617736816 -1974.841674804688 28.54775047302246 -1974.841674804688 27.9998836517334 L -1974.841674804688 24.00028419494629 C -1974.841674804688 20.82748413085938 -1974.220336914062 17.7498836517334 -1972.9951171875 14.85295009613037 C -1971.8115234375 12.05461692810059 -1970.117065429688 9.541350364685059 -1967.958740234375 7.383016586303711 C -1965.800415039062 5.224617004394531 -1963.287353515625 3.530150175094604 -1960.489013671875 2.346549987792969 C -1957.59228515625 1.121283411979675 -1954.514892578125 0.5000167489051819 -1951.34228515625 0.5000167489051819 L -1500.243286132812 0.5000167489051819 C -1497.070678710938 0.5000167489051819 -1493.993286132812 1.121283411979675 -1491.096557617188 2.346549987792969 C -1488.29833984375 3.530150175094604 -1485.78515625 5.224617004394531 -1483.626831054688 7.383016586303711 C -1481.468383789062 9.541350364685059 -1479.77392578125 12.05461692810059 -1478.590454101562 14.85295009613037 C -1477.365234375 17.7498836517334 -1476.743896484375 20.82748413085938 -1476.743896484375 24.00028419494629 L -1476.743896484375 27.9998836517334 C -1476.743896484375 31.17268371582031 -1477.365234375 34.25028228759766 -1478.590454101562 37.147216796875 C -1479.77392578125 39.94554901123047 -1481.468383789062 42.45881652832031 -1483.626831054688 44.61721801757812 C -1485.78515625 46.77555084228516 -1488.29833984375 48.47008514404297 -1491.096557617188 49.65368270874023 C -1493.993286132812 50.87894821166992 -1497.070678710938 51.50021743774414 -1500.243286132812 51.50021743774414 L -1951.34228515625 51.50021743774414 C -1956.39599609375 51.50021743774414 -1961.211059570312 49.92048263549805 -1965.267211914062 46.93181610107422 L -1965.503662109375 46.75761795043945 L -1965.770874023438 46.87921524047852 L -1990.345581054688 58.06022644042969 Z" stroke="none"/>
            <path d="M -1989.179931640625 56.98064041137695 L -1965.443481445312 46.18095016479492 L -1964.970581054688 46.52928161621094 C -1961.001098632812 49.45421600341797 -1956.288452148438 51.00021743774414 -1951.34228515625 51.00021743774414 L -1500.243286132812 51.00021743774414 C -1497.137939453125 51.00021743774414 -1494.126098632812 50.39221572875977 -1491.291259765625 49.19314956665039 C -1488.552612304688 48.03481674194336 -1486.092895507812 46.37628173828125 -1483.980346679688 44.2636833190918 C -1481.867797851562 42.15101623535156 -1480.209350585938 39.6911506652832 -1479.050903320312 36.95241546630859 C -1477.851928710938 34.11748504638672 -1477.243896484375 31.10541725158691 -1477.243896484375 27.9998836517334 L -1477.243896484375 24.00028419494629 C -1477.243896484375 20.89475059509277 -1477.851928710938 17.88268280029297 -1479.050903320312 15.04775047302246 C -1480.209350585938 12.30901718139648 -1481.867797851562 9.849149703979492 -1483.980346679688 7.736550331115723 C -1486.092895507812 5.623950004577637 -1488.552612304688 3.965416669845581 -1491.291259765625 2.807016849517822 C -1494.126098632812 1.608016729354858 -1497.137939453125 1.000016808509827 -1500.243286132812 1.000016808509827 L -1951.34228515625 1.000016808509827 C -1954.447631835938 1.000016808509827 -1957.45947265625 1.608016729354858 -1960.294311523438 2.807016849517822 C -1963.032958984375 3.965416669845581 -1965.49267578125 5.623950004577637 -1967.605224609375 7.736550331115723 C -1969.7177734375 9.849149703979492 -1971.376220703125 12.30901718139648 -1972.53466796875 15.04775047302246 C -1973.733642578125 17.88268280029297 -1974.341674804688 20.89475059509277 -1974.341674804688 24.00028419494629 L -1974.341674804688 27.9998836517334 C -1974.341674804688 28.53628349304199 -1974.322998046875 29.07881736755371 -1974.2861328125 29.61228370666504 L -1974.265747070312 29.9058837890625 L -1974.40771484375 30.16368293762207 L -1989.179931640625 56.98064041137695 M -1991.511108398438 59.13988494873047 L -1975.28369140625 29.68121719360352 C -1975.322143554688 29.1254825592041 -1975.341674804688 28.56541633605957 -1975.341674804688 27.9998836517334 L -1975.341674804688 24.00028419494629 C -1975.341674804688 10.74508380889893 -1964.596557617188 1.677042564551812e-05 -1951.34228515625 1.677042564551812e-05 L -1500.243286132812 1.677042564551812e-05 C -1486.989013671875 1.677042564551812e-05 -1476.243896484375 10.74508380889893 -1476.243896484375 24.00028419494629 L -1476.243896484375 27.9998836517334 C -1476.243896484375 41.25508499145508 -1486.989013671875 52.00021743774414 -1500.243286132812 52.00021743774414 L -1951.34228515625 52.00021743774414 C -1956.665283203125 52.00021743774414 -1961.583618164062 50.26708221435547 -1965.563842773438 47.3343505859375 L -1991.511108398438 59.13988494873047 Z" stroke="none" fill="#8da8e8"/>
        </g>
    </g>
</svg>
