<svg xmlns="http://www.w3.org/2000/svg" width="354" height="442" viewBox="0 0 354 442">
    <defs>
        <filter id="Image_2" x="0" y="0" width="354" height="442" filterUnits="userSpaceOnUse">
            <feOffset dy="3" input="SourceAlpha"/>
            <feGaussianBlur stdDeviation="15" result="blur"/>
            <feFlood flood-color="#8b8fd5"/>
            <feComposite operator="in" in2="blur"/>
            <feComposite in="SourceGraphic"/>
        </filter>
    </defs>
    <g id="Groupe_2" data-name="Groupe 2" transform="translate(-549 -364)">
        <g transform="matrix(1, 0, 0, 1, 549, 364)" filter="url(#Image_2)">
            <rect id="Image_2-2" data-name="Image 2" width="264" height="352" rx="20" transform="translate(45 42)" fill="#efefef"/>
        </g>
        <g id="open" transform="translate(706.281 560.559)">
            <path id="Tracé_9" data-name="Tracé 9" d="M30.865,15.22V32.893a3.676,3.676,0,0,1-3.483,3.842H6.483A3.676,3.676,0,0,1,3,32.893V9.842A3.676,3.676,0,0,1,6.483,6H21.066" transform="translate(0 3.147)" fill="none" stroke="#8f8f8f" stroke-linecap="round" stroke-linejoin="round" stroke-width="1.5"/>
            <path id="Tracé_10" data-name="Tracé 10" d="M15.75,3H25.5V13.757" transform="translate(10.936 0)" fill="none" stroke="#8f8f8f" stroke-linecap="round" stroke-linejoin="round" stroke-width="1.5"/>
            <path id="Tracé_11" data-name="Tracé 11" d="M10.5,24.121,29.309,3.375" transform="translate(6.433 0.393)" fill="none" stroke="#8f8f8f" stroke-linecap="round" stroke-linejoin="round" stroke-width="1.5"/>
        </g>
    </g>
</svg>