<svg
        width="720"
        height="1024"
        viewBox="100 0 720 1024"
        fill="none"
        xmlns="http://www.w3.org/2000/svg"
>
    <g clipPath="url(#clip0_1_4)">
        <path
                d="M720 0L680 17.066C640 34.132 560 68.264 546.75 102.399C532.5 136.531 587.5 170.666 613.25 204.799C640.001 238.931 640 273.066 640 307.199V409.6C640 443.732 640.001 477.866 546.751 512C452.501 546.132 267.501 580.267 226.75 614.4C187.501 648.532 292.501 682.667 333.25 716.8C372.5 750.932 347.501 785.067 400.001 819.2C452.501 853.334 587.5 887.467 586.75 921.6C587.5 955.732 452.5 989.867 386.75 1006.93L320 1024H0L0 0L720 0Z"
                fill="#D0CFEE"
        />
    </g>
    <defs>
        <clipPath id="clip0_1_4">
            <rect width="900" height="1024" fill="white" />
        </clipPath>
    </defs>
</svg>