<svg width="30" height="30" fill="none" stroke="#000000" stroke-linecap="round" stroke-linejoin="round" stroke-width="1.5" viewBox="0 0 24 24" xmlns="http://www.w3.org/2000/svg">
  <path d="M21.914 11.664c-.862-3.9-2.142-6.386-4.192-6.992A4.289 4.289 0 0 0 16.5 4.5c-1.26 0-2.255.75-4.5.75S8.758 4.5 7.5 4.5a4.656 4.656 0 0 0-1.275.172c-2.053.606-3.322 3.095-4.194 6.992-.89 3.98-.73 7.125 1.011 7.729 1.22.422 2.309-.45 3.341-1.735 1.172-1.462 2.615-1.912 5.617-1.912 3.001 0 4.388.45 5.562 1.912 1.031 1.285 2.161 2.147 3.348 1.742 1.922-.656 1.895-3.709 1.004-7.736Z"></path>
  <path fill="#000000" stroke="none" d="M13.688 11.438a.937.937 0 1 0 0-1.875.937.937 0 0 0 0 1.874Z"></path>
  <path fill="#000000" stroke="none" d="M15.75 13.5a.937.937 0 1 1 0-1.874.937.937 0 0 1 0 1.874Z"></path>
  <path fill="#000000" stroke="none" d="M15.75 9.375a.937.937 0 1 0 0-1.875.937.937 0 0 0 0 1.875Z"></path>
  <path fill="#000000" stroke="none" d="M17.813 11.438a.937.937 0 1 0 0-1.875.937.937 0 0 0 0 1.874Z"></path>
  <path d="M7.5 8.25v4.5"></path>
  <path d="M9.75 10.5h-4.5"></path>
</svg>